<?xml version="1.0" encoding="utf-8"?>
<!-- Generator: Adobe Illustrator 28.0.0, SVG Export Plug-In . SVG Version: 6.00 Build 0)  -->
<svg version="1.1"
	 id="svg8" xmlns:svg="http://www.w3.org/2000/svg" xmlns:rdf="http://www.w3.org/1999/02/22-rdf-syntax-ns#" xmlns:inkscape="http://www.inkscape.org/namespaces/inkscape" xmlns:dc="http://purl.org/dc/elements/1.1/" xmlns:cc="http://creativecommons.org/ns#" xmlns:sodipodi="http://sodipodi.sourceforge.net/DTD/sodipodi-0.dtd"
	 xmlns="http://www.w3.org/2000/svg" xmlns:xlink="http://www.w3.org/1999/xlink" x="0px" y="0px" viewBox="0 0 919.7 278.2"
	 style="enable-background:new 0 0 919.7 278.2;" xml:space="preserve">
<style type="text/css">
	.st0{fill:#B4B4B4;stroke:#585858;stroke-width:5.6693;stroke-linecap:round;stroke-miterlimit:11.3386;}
	.st1{fill:#585858;}
	.st2{display:none;}
	
		.st3{display:inline;fill:url(#circle864_00000029753681883945262230000016043306323547546260_);stroke:#585858;stroke-width:1.7245;}
	.st4{fill:#EAF3F7;}
	.st5{fill:#52B1E4;}
	.st6{fill:#398FB6;}
	.st7{fill:#FFFFFF;}
	.st8{fill:#FBFCFC;}
	.st9{fill:url(#circle864_00000102513693267699135760000006985592003232666509_);stroke:#585858;stroke-width:1.7245;}
	.st10{fill:#C8DAEA;}
	.st11{fill:#A9C9DD;}
	.st12{fill:url(#path870_00000098900904643836896720000014626777073719386043_);}
	.st13{fill:#E9CA7F;}
	.st14{fill:#EFD8A0;}
	.st15{fill:none;stroke:#585858;stroke-width:5.6693;stroke-linecap:round;stroke-miterlimit:11.3386;}
	.st16{fill:#3C3C3C;}
</style>
<sodipodi:namedview  bordercolor="#666666" borderopacity="1.0" fit-margin-bottom="0" fit-margin-left="0" fit-margin-right="0" fit-margin-top="0" id="base" inkscape:current-layer="layer1" inkscape:cx="-1230.0562" inkscape:cy="-288.84455" inkscape:document-units="mm" inkscape:guide-bbox="true" inkscape:pageopacity="0.0" inkscape:pageshadow="2" inkscape:window-height="1377" inkscape:window-maximized="1" inkscape:window-width="2560" inkscape:window-x="-8" inkscape:window-y="-8" inkscape:zoom="0.35" pagecolor="#ffffff" showgrid="false" showguides="false">
	<sodipodi:guide  id="guide1475" inkscape:locked="false" orientation="0,1" position="25.279063,107.69867"></sodipodi:guide>
	<sodipodi:guide  id="guide1578" inkscape:locked="false" orientation="1,0" position="42.854959,98.060286"></sodipodi:guide>
	<sodipodi:guide  id="guide1589" inkscape:locked="false" orientation="1,0" position="6.707487,98.446406"></sodipodi:guide>
	<sodipodi:guide  id="guide1608" inkscape:locked="false" orientation="0,1" position="6.707487,98.446416"></sodipodi:guide>
</sodipodi:namedview>
<g>
	
		<path id="rect1490_00000129890037590447062310000006542389624301189255_" inkscape:export-filename="C:\Users\schinken\Desktop\ftp2telegram.png" inkscape:export-xdpi="69.559998" inkscape:export-ydpi="69.559998" class="st0" d="
		M13,242.8h468.7c5.6,0,10.2,5.5,10.2,12.3l0,0c0,6.8-4.6,12.3-10.2,12.3H13c-5.6,0-10.2-5.5-10.2-12.3l0,0
		C2.8,248.3,7.4,242.8,13,242.8z"/>
	
		<path id="rect1490-8_00000121962442209545926150000015597620447417177764_" inkscape:export-filename="C:\Users\schinken\Desktop\ftp2telegram.png" inkscape:export-xdpi="69.559998" inkscape:export-ydpi="69.559998" class="st0" d="
		M114.9,254.7v-78.2c0-7,5.6-12.6,12.6-12.6l0,0c7,0,12.6,5.6,12.6,12.6v78.2c0,7-5.6,12.6-12.6,12.6l0,0
		C120.5,267.3,114.9,261.7,114.9,254.7z"/>
	
		<path id="rect1490-0_00000110458058178918824890000009753246898620100520_" inkscape:connector-curvature="0" inkscape:export-filename="C:\Users\schinken\Desktop\ftp2telegram.png" inkscape:export-xdpi="69.559998" inkscape:export-ydpi="69.559998" class="st1" d="
		M113.8,216.3c-2.8,0-5,2.2-5,5v12.4H94.4c-5.2,0-9.5,4.2-9.5,9.5v25.7c0,5.2,4.2,9.5,9.5,9.5h66.2c5.2,0,9.5-4.2,9.5-9.5v-25.7
		c0-5.2-4.2-9.5-9.5-9.5h-14.4v-12.4c0-2.8-2.2-5-5-5H113.8z"/>
	
		<g id="g1467_00000155828917583346816500000016108907531722550180_" transform="matrix(1.0537893,0,0,1.0284286,22.756269,33.238915)" inkscape:export-filename="C:\Users\schinken\Desktop\ftp2telegram.png" inkscape:export-xdpi="69.559998" inkscape:export-ydpi="69.559998" class="st2">
		
			<linearGradient id="circle864_00000091712269176844960460000002650697416833604261_" gradientUnits="userSpaceOnUse" x1="-420.3663" y1="237.8751" x2="-480.3663" y2="97.9551" gradientTransform="matrix(0.7903 0 0 -0.7713 458.0154 181.8701)">
			<stop  offset="0" style="stop-color:#37AEE2"/>
			<stop  offset="1" style="stop-color:#1E96C8"/>
		</linearGradient>
		
			<ellipse id="circle864_00000055681079188207387360000012906768241825957770_" style="display:inline;fill:url(#circle864_00000091712269176844960460000002650697416833604261_);stroke:#585858;stroke-width:1.7245;" cx="99.4" cy="59.9" rx="94.8" ry="92.6"/>
	</g>
	<g>
		<path class="st4" d="M130.5,186.3c0,0.1,0,0.1,0,0.2c-2.5,0-5,0-7.4,0c0-0.1,0-0.1,0-0.2C125.5,186.3,128,186.3,130.5,186.3z"/>
		<path class="st5" d="M130.5,186.3c-2.5,0-5,0-7.5,0c-9.2-0.4-18.2-2-26.9-4.9c-11-3.7-20.9-9.1-29.8-16.4
			c-9.9-8.1-17.8-17.7-23.7-28.9c-4.7-8.9-7.7-18.4-9.2-28.3c-0.8-5.7-1.2-11.3-0.9-17c0.6-12,3.4-23.5,8.6-34.5
			c4.3-9,9.9-17.1,16.9-24.3C69.7,20.1,83.8,11.7,100.1,7c6.8-2,13.6-3.1,20.7-3.5c18.3-1.2,35.5,2.7,51.6,11.3
			c7.3,3.9,13.9,8.6,19.9,14.2c6.5,6.1,12.1,13.1,16.6,20.7c4.5,7.7,7.8,15.8,9.8,24.4c1.1,4.6,1.9,9.3,2.1,14.1
			c-0.2-0.1-0.4-0.2-0.6-0.4c-7.9-7.9-16.1-15.6-23.9-23.5c-3.6-3.7-7.3-7.2-11-10.8c-3.1-3-6.1-6.1-9.3-9c-1-1-2.3-0.8-3.4-0.9
			c-6.3-0.6-12.5-0.6-18.8-0.7c-5.5,0-11,0-16.5,0.4c-1.9,0.1-3.9,0.2-5.8,0.7c-0.6,0.1-0.7,0.4-0.2,0.7c0.4,0.5,0.8,1,1.2,1.5
			c-0.2,0-0.4,0-0.6,0c-1.1-0.4-1.2,0.1-1.2,1c0.1,1.5,0.1,2.9,0,4.4c0,0.8,0.2,1.4,1,1.5c-0.3,0.3,0,0.4,0.1,0.6
			c2.1,2.1,4.2,4.1,6.3,6.2c2.1,2.1,4.3,4.2,6.4,6.3c-4,1.3-8,2.6-12,3.9c-17.1,5.4-34.2,11-51.2,16.6c-2.7,0.9-5.3,1.8-7.9,2.7
			c-3.5,1.2-5.1,5-3.3,7.8c0.9,1.5,2.4,2.5,4.1,3.2c2.4,1,4.9,1.5,7.5,1.9c0.6,0.1,0.7,0.9,1.3,1c-0.3,3.2-0.4,6.5,0,9.7
			c0.8,7,3.2,13.4,7,19.3c2.3,3.7,5.3,6.8,8.7,9.6c0,0.3,0.2,0.4,0.5,0.4l0,0c0.1,0.1,0.2,0.2,0.3,0.2l0,0c0.1,0.1,0.2,0.2,0.3,0.2
			l0,0c0,0.6,0.4,0.8,0.8,1.2c9.2,9,18.5,17.9,27.7,26.9c4.8,4.7,9.6,9.4,14.4,14.1C138.6,185.8,134.6,186.1,130.5,186.3z"/>
		<path class="st6" d="M83.1,103.4c-0.6-0.1-0.7-0.9-1.3-1c0.1-0.8,0.3-1.6,0.4-2.4c0.5-3.8,2.6-6.1,6.4-6.8
			c2.6-0.5,5.3-0.4,7.9,0.2c9.1,1.8,17.1,6,24.4,11.4c3.2,2.4,6,5.2,7.4,9.2c1.3,3.9,1.8,7.8,1.6,11.8c-0.1,4.5-1,8.7-3.2,12.7
			c-0.9,1.6-2.1,3-3.7,4.5c0.6-0.2,0.8-0.3,1-0.4c8.4-3.3,16.8-6.8,25-10.5c5.5-2.5,10.9-5.1,16.1-8.3c2.9-1.8,4.3-4.4,4.3-7.7
			c0-2-0.3-3.9-0.7-5.8c-1-4.7-2.5-9.4-3-14.2c-0.4-3.8,0.2-7.4,2.3-10.7c2-3.2,5-5.4,8.1-7.5c2-1.3,4.1-2.4,5.9-4
			c2.1-1.7,2.6-3.7,1.6-6.1c-1.3-3.3-3.7-5.5-7-6.8c-3.6-1.4-7.3-1.5-11.1-1.2c-1.4,0.1-2.9,0.5-3.9,1.3c-0.8,0.6-0.2,2.1-0.2,3.2
			c0,0.1,0,0.2,0,0.2c0,2.1-0.3,2.6-2.4,3.1c-3,0.8-6.1,0.6-9.1,0.3c-1.6-0.1-3.2-0.3-4.3-1.8c-0.2-0.3-0.5,0.1-0.8,0
			c-2.1-2.1-4.3-4.2-6.4-6.3c-2.1-2.1-4.2-4.1-6.3-6.2c-0.2-0.2-0.4-0.3-0.1-0.6c2.5,0.3,4.9,0.5,7.4,0.6
			c10.4,0.5,20.7,0.4,31.1-0.1c1.5-0.1,3-0.3,4.6-0.5c0.9-0.1,1.3-0.5,1.2-1.4c-0.1-1.6,0-3.2,0-4.8c0-0.6,0-1-0.9-0.8
			c-2.3,0.5-4.7,0.6-7.1,0.7c-9.7,0.4-19.5,0.5-29.2,0c-2.1-0.1-4.2-0.1-6.3-0.6c-0.4-0.5-0.8-1-1.2-1.5c4.8,0.7,9.6,0.9,14.4,1
			c7.5,0.1,14.9,0.2,22.4-0.3c2.6-0.2,5.3-0.1,7.8-0.9c3.3,2.8,6.2,6,9.3,9c3.7,3.6,7.4,7.1,11,10.8c7.8,8,16.1,15.6,23.9,23.5
			c0.2,0.2,0.4,0.3,0.6,0.4c1.3,15.9-1.7,31-8.6,45.5c-5.3,11.1-12.8,20.8-22.1,29c-13.1,11.5-28.4,18.9-45.8,22.1
			c-0.5,0.1-1.1,0.2-1.6,0.2c-4.8-4.7-9.6-9.4-14.4-14.1c-9.2-9-18.5-17.9-27.7-26.9c-0.3-0.3-0.8-0.6-0.8-1.2
			c1.2,0.6,2.4,1.3,3.6,1.9c6.3,3,12.5,2.4,17.4-2c2.8-2.5,4.4-5.7,5.3-9.2c1.9-7.1,1.3-14.1-0.8-21.1c-0.2-0.8-0.3-1.7-0.9-2.3
			c-1.7-2.1-3.8-3.8-6-5.4c-0.1,0.4,0.1,0.6,0.3,0.8c3.6,6.4,5.3,13.3,4.8,20.6c-0.2,3.4-1.1,6.6-2.9,9.5c-2.1,3.4-5.1,5.6-9.3,5.9
			c-5.2,0.4-9.5-1.8-13-5.2c-8.5-8-12.1-17.8-11.4-29.1c0.3-4.7,1.8-9,5.6-12.4c0.1-0.1,0.1-0.2,0.1-0.3c-0.8,0-1.6-0.1-2.4,0
			c-2.7,0.3-4.9,1.3-5.6,4.2C83.8,100.3,83.4,101.9,83.1,103.4z M153.3,55.7c-1.8,0-3.6,0-5.3,0c-0.8,0-1.2,0.2-1.1,1
			c0.1,2.7,0.1,5.4,0,8.2c0,0.8,0.3,1.2,1,1.4c3.6,0.8,7.3,0.8,10.9,0c0.7-0.1,1-0.5,1-1.3c0-2.8,0-5.6,0-8.4c0-0.8-0.3-0.9-1-0.9
			C157,55.7,155.1,55.7,153.3,55.7z M113.8,119.7c-0.1-0.5-0.1-1.3-0.2-2.2c-0.9-4.7-2.9-8.9-7.3-11.5c-3.9-2.4-8-0.9-9.5,3.3
			c-0.9,2.6-0.9,5.2-0.3,7.8c1.1,4.3,3.1,8,7.1,10.4c3.9,2.3,7.9,0.9,9.5-3.3C113.6,122.9,113.8,121.5,113.8,119.7z"/>
		<path class="st7" d="M144.6,66.3c0.3,0.1,0.6-0.3,0.8,0c1.1,1.4,2.7,1.6,4.3,1.8c3,0.3,6.1,0.4,9.1-0.3c2.1-0.5,2.4-1,2.4-3.1
			c0-0.1,0-0.2,0-0.2c0.1-1.1-0.5-2.6,0.2-3.2c1-0.8,2.6-1.2,3.9-1.3c3.8-0.4,7.5-0.3,11.1,1.2c3.3,1.3,5.7,3.5,7,6.8
			c1,2.5,0.5,4.4-1.6,6.1c-1.8,1.5-3.9,2.7-5.9,4c-3.2,2-6.1,4.2-8.1,7.5c-2.1,3.3-2.7,6.9-2.3,10.7c0.5,4.9,2,9.5,3,14.2
			c0.4,1.9,0.7,3.9,0.7,5.8c0,3.3-1.4,5.8-4.3,7.7c-5.1,3.2-10.6,5.8-16.1,8.3c-8.2,3.8-16.6,7.2-25,10.5c-0.2,0.1-0.5,0.2-1,0.4
			c1.6-1.5,2.8-2.9,3.7-4.5c2.2-4,3.1-8.2,3.2-12.7c0.1-4-0.3-8-1.6-11.8c-1.3-3.9-4.1-6.8-7.4-9.2c-7.3-5.4-15.3-9.5-24.4-11.4
			c-2.6-0.5-5.2-0.7-7.9-0.2c-3.8,0.7-6,3-6.4,6.8c-0.1,0.8-0.2,1.6-0.4,2.4c-2.6-0.4-5.1-0.9-7.5-1.9c-1.7-0.7-3.1-1.7-4.1-3.2
			c-1.7-2.8-0.1-6.5,3.3-7.8c2.6-1,5.3-1.8,7.9-2.7c17-5.7,34.1-11.2,51.2-16.6C136.6,68.9,140.6,67.6,144.6,66.3z"/>
		<path class="st8" d="M83.1,103.4c0.4-1.6,0.8-3.1,1.2-4.7c0.7-2.9,2.9-3.9,5.6-4.2c0.8-0.1,1.6,0,2.4,0c0,0.1,0,0.2-0.1,0.3
			c-3.7,3.3-5.3,7.7-5.6,12.4c-0.7,11.3,3,21.2,11.4,29.1c3.6,3.4,7.8,5.6,13,5.2c4.2-0.3,7.1-2.5,9.3-5.9c1.8-2.9,2.7-6.1,2.9-9.5
			c0.5-7.3-1.2-14.2-4.8-20.6c-0.1-0.2-0.4-0.4-0.3-0.8c2.3,1.6,4.3,3.3,6,5.4c0.6,0.7,0.7,1.5,0.9,2.3c2.1,7,2.8,14,0.8,21.1
			c-0.9,3.5-2.5,6.7-5.3,9.2c-4.9,4.3-11,5-17.4,2c-1.2-0.6-2.4-1.3-3.6-1.9c0,0,0,0,0,0c0-0.2-0.1-0.2-0.3-0.2c0,0,0,0,0,0
			c-0.1-0.1-0.2-0.2-0.3-0.2c0,0,0,0,0,0c-0.2-0.1-0.3-0.2-0.5-0.4c-3.4-2.8-6.4-5.9-8.7-9.6c-3.8-6-6.1-12.4-7-19.3
			C82.6,109.9,82.7,106.6,83.1,103.4z"/>
		<path class="st7" d="M132.5,46.4c2.1,0.5,4.2,0.5,6.3,0.6c9.7,0.5,19.5,0.4,29.2,0c2.4-0.1,4.8-0.2,7.1-0.7
			c0.9-0.2,0.9,0.2,0.9,0.8c0,1.6-0.1,3.2,0,4.8c0.1,1-0.4,1.3-1.2,1.4c-1.5,0.2-3,0.4-4.6,0.5c-10.4,0.6-20.7,0.7-31.1,0.1
			c-2.5-0.1-4.9-0.3-7.4-0.6c-0.9-0.2-1.1-0.7-1-1.5c0.1-1.5,0.1-2.9,0-4.4c0-0.9,0.1-1.4,1.2-1C132,46.4,132.3,46.3,132.5,46.4z"/>
		<path class="st8" d="M175.9,44.6c-2.5,0.8-5.2,0.8-7.8,0.9c-7.5,0.4-14.9,0.4-22.4,0.3c-4.8-0.1-9.7-0.2-14.4-1
			c-0.5-0.4-0.5-0.6,0.2-0.7c1.9-0.5,3.8-0.5,5.8-0.7c5.5-0.4,11-0.4,16.5-0.4c6.3,0,12.6,0,18.8,0.7
			C173.6,43.8,174.9,43.6,175.9,44.6z"/>
		<path class="st6" d="M98.7,142.1c0.2,0.1,0.3,0.2,0.5,0.4C98.9,142.4,98.7,142.3,98.7,142.1z"/>
		<path class="st6" d="M99.2,142.4c0.1,0.1,0.2,0.2,0.3,0.2C99.4,142.6,99.3,142.5,99.2,142.4z"/>
		<path class="st6" d="M99.4,142.7c0.2,0,0.3,0.1,0.3,0.2C99.6,142.8,99.5,142.7,99.4,142.7z"/>
		<path class="st7" d="M153.3,55.7c1.8,0,3.6,0,5.5,0c0.7,0,1,0.1,1,0.9c0,2.8,0,5.6,0,8.4c0,0.8-0.3,1.1-1,1.3
			c-3.6,0.8-7.3,0.8-10.9,0c-0.7-0.2-1-0.6-1-1.4c0-2.7,0.1-5.4,0-8.2c0-0.9,0.3-1.1,1.1-1C149.8,55.7,151.5,55.7,153.3,55.7z"/>
		<path class="st8" d="M113.8,119.7c0,1.8-0.2,3.2-0.7,4.6c-1.5,4.2-5.6,5.6-9.5,3.3c-4-2.4-6.1-6.1-7.1-10.4
			c-0.6-2.6-0.7-5.2,0.3-7.8c1.5-4.2,5.6-5.7,9.5-3.3c4.4,2.6,6.4,6.8,7.3,11.5C113.7,118.3,113.7,119.2,113.8,119.7z M112.3,119.4
			c-0.2-3.8-1.5-7.3-4.2-10c-1.8-1.8-3.9-3-6.5-2.3c-2.5,0.7-3.4,2.7-3.8,4.9c-0.7,4.4,0.6,8.3,3.6,11.7c1.1,1.2,2.3,2.2,3.9,2.7
			c2.4,0.7,4.6-0.1,5.8-2.2C112,122.7,112.2,121.1,112.3,119.4z"/>
		<path class="st6" d="M112.3,119.4c-0.1,1.7-0.3,3.3-1.2,4.8c-1.3,2.1-3.4,2.9-5.8,2.2c-1.6-0.5-2.9-1.4-3.9-2.7
			c-2.9-3.4-4.3-7.3-3.6-11.7c0.4-2.2,1.3-4.2,3.8-4.9c2.7-0.8,4.8,0.5,6.5,2.3C110.9,112.1,112.1,115.6,112.3,119.4z M101.4,119.8
			c0-0.1,0-0.2,0-0.3c0,0-0.1,0-0.1,0C101.3,119.6,101.4,119.7,101.4,119.8c0,0.3,0.2,0.6,0.5,0.7c0.6,1.1,1.5,1.8,2.5,2.4
			c2,1,4,0.3,4.9-1.7c0.6-1.5,0.7-3.1,0.1-4.7c-0.1,0.7,0,1.4-0.1,2c-0.3,3.5-3.2,4.8-6,2.9c-0.4-0.3-0.8-0.7-1.2-1
			C101.9,120.1,101.8,119.8,101.4,119.8z M101.6,112.5c1-1.2,2.3-1.4,3.7-0.7C103.6,110.2,102,110.5,101.6,112.5z"/>
		<path class="st4" d="M102.1,120.4c0.4,0.3,0.8,0.7,1.2,1c2.8,2,5.7,0.6,6-2.9c0.1-0.7,0-1.4,0.1-2c0.6,1.6,0.5,3.2-0.1,4.7
			c-0.9,2-2.9,2.7-4.9,1.7c-1.1-0.5-2-1.3-2.5-2.4C101.9,120.5,102,120.4,102.1,120.4z"/>
		<path class="st4" d="M101.6,112.5c0.4-2,2-2.3,3.7-0.7C103.8,111.1,102.6,111.3,101.6,112.5z"/>
		<path class="st4" d="M101.9,120.5c-0.3-0.2-0.4-0.4-0.5-0.7l0,0c0.4,0,0.5,0.3,0.6,0.6C102,120.4,101.9,120.5,101.9,120.5z"/>
		<path class="st4" d="M101.4,119.8c-0.1-0.1-0.1-0.2-0.2-0.3c0,0,0.1,0,0.1,0C101.4,119.6,101.4,119.7,101.4,119.8
			C101.4,119.8,101.4,119.8,101.4,119.8z"/>
	</g>
</g>
<g id="layer1" transform="translate(-8.9277802,-99.6414)" inkscape:groupmode="layer" inkscape:label="Layer 1">
	
		<path id="rect1490" inkscape:export-filename="C:\Users\schinken\Desktop\ftp2telegram.png" inkscape:export-xdpi="69.559998" inkscape:export-ydpi="69.559998" class="st0" d="
		M468.7,342.5h448.2c5.4,0,9.8,5.5,9.8,12.3l0,0c0,6.8-4.4,12.3-9.8,12.3H468.7c-5.4,0-9.8-5.5-9.8-12.3l0,0
		C458.9,348,463.3,342.5,468.7,342.5z"/>
	
		<path id="rect1490-8" inkscape:export-filename="C:\Users\schinken\Desktop\ftp2telegram.png" inkscape:export-xdpi="69.559998" inkscape:export-ydpi="69.559998" class="st0" d="
		M451.3,354.4v-78.2c0-7,5.6-12.6,12.6-12.6l0,0c7,0,12.6,5.6,12.6,12.6v78.2c0,7-5.6,12.6-12.6,12.6l0,0
		C456.9,367,451.3,361.3,451.3,354.4z"/>
	
		<path id="rect1490-0" inkscape:connector-curvature="0" inkscape:export-filename="C:\Users\schinken\Desktop\ftp2telegram.png" inkscape:export-xdpi="69.559998" inkscape:export-ydpi="69.559998" class="st1" d="
		M450.2,315.9c-2.8,0-5,2.2-5,5v12.4h-14.4c-5.2,0-9.5,4.2-9.5,9.5v25.7c0,5.2,4.2,9.5,9.5,9.5H497c5.2,0,9.5-4.2,9.5-9.5v-25.7
		c0-5.2-4.2-9.5-9.5-9.5h-14.4V321c0-2.8-2.2-5-5-5H450.2z"/>
	
		<path id="rect1490-8-2" inkscape:export-filename="C:\Users\schinken\Desktop\ftp2telegram.png" inkscape:export-xdpi="69.559998" inkscape:export-ydpi="69.559998" class="st0" d="
		M778.5,354.4v-78.2c0-7,5.6-12.6,12.6-12.6l0,0c7,0,12.6,5.6,12.6,12.6v78.2c0,7-5.6,12.6-12.6,12.6l0,0
		C784.1,367,778.5,361.3,778.5,354.4z"/>
	
		<g id="g1467" transform="matrix(1.0537893,0,0,1.0284286,22.756269,33.238915)" inkscape:export-filename="C:\Users\schinken\Desktop\ftp2telegram.png" inkscape:export-xdpi="69.559998" inkscape:export-ydpi="69.559998">
		
			<linearGradient id="circle864_00000082345918889963261280000009448478349111978386_" gradientUnits="userSpaceOnUse" x1="374.1479" y1="334.7421" x2="314.1479" y2="194.8221" gradientTransform="matrix(0.7903 0 0 -0.7713 459.7917 353.4881)">
			<stop  offset="0" style="stop-color:#37AEE2"/>
			<stop  offset="1" style="stop-color:#1E96C8"/>
		</linearGradient>
		
			<ellipse id="circle864" style="fill:url(#circle864_00000082345918889963261280000009448478349111978386_);stroke:#585858;stroke-width:1.7245;" cx="729.1" cy="156.8" rx="94.8" ry="92.6"/>
		<path id="path866" inkscape:connector-curvature="0" class="st10" d="M712.6,198.1c-2.9,0-2.4-1.1-3.4-3.9l-8.6-28.2l66-39.2"/>
		<path id="path868" inkscape:connector-curvature="0" class="st11" d="M712.6,198.1c2.2,0,3.2-1,4.5-2.2l12-11.7l-15-9"/>
		
			<linearGradient id="path870_00000065790277073418311470000013288645002204049536_" gradientUnits="userSpaceOnUse" x1="366.9167" y1="255.5395" x2="389.7429" y2="211.9187" gradientTransform="matrix(0.863 0 0 -0.7064 418.8029 339.507)">
			<stop  offset="0" style="stop-color:#EFF7FC"/>
			<stop  offset="1" style="stop-color:#FFFFFF"/>
		</linearGradient>
		
			<path id="path870" inkscape:connector-curvature="0" style="fill:url(#path870_00000065790277073418311470000013288645002204049536_);" d="
			M714.1,175.1l36.3,26.8c4.1,2.3,7.1,1.1,8.2-3.8l14.8-69.6c1.5-6.1-2.3-8.8-6.3-7l-86.7,33.4c-5.9,2.4-5.9,5.7-1.1,7.1l22.2,6.9
			l51.5-32.5c2.4-1.5,4.7-0.7,2.8,0.9"/>
	</g>
	
		<path id="rect1490-0-6" inkscape:connector-curvature="0" inkscape:export-filename="C:\Users\schinken\Desktop\ftp2telegram.png" inkscape:export-xdpi="69.559998" inkscape:export-ydpi="69.559998" class="st1" d="
		M777.4,315.9c-2.8,0-5,2.2-5,5v12.4H758c-5.2,0-9.5,4.2-9.5,9.5v25.7c0,5.2,4.2,9.5,9.5,9.5h66.2c5.2,0,9.5-4.2,9.5-9.5v-25.7
		c0-5.2-4.2-9.5-9.5-9.5h-14.4v-12.4c0-2.8-2.2-5-5-5H777.4z"/>
	
		<path id="rect1568" inkscape:connector-curvature="0" inkscape:export-filename="C:\Users\schinken\Desktop\ftp2telegram.png" inkscape:export-xdpi="69.559998" inkscape:export-ydpi="69.559998" sodipodi:nodetypes="sssscsccccs" class="st13" d="
		M370.7,101.5c-6.9,0-12.4,5.5-12.4,12.4v164.8c0,6.9,5.5,12.4,12.4,12.4h187.3c6.9,0,12.4-5.5,12.4-12.4V136.5
		c0-8.3-6-12.2-13.6-12.2h-74.5l-24.4-22.8H370.7z"/>
	
		<path id="path1591" inkscape:connector-curvature="0" inkscape:export-filename="C:\Users\schinken\Desktop\ftp2telegram.png" inkscape:export-xdpi="69.559998" inkscape:export-ydpi="69.559998" sodipodi:nodetypes="cccccccccccscc" class="st14" d="
		M358.1,267.2h184.4c3.4-0.1,6.9-2.8,6.9-6.3V124l14.8,1.1l6.1,6.8l-0.8,150.4l-3,6.1l-8.7,3.4L369,290.7c0,0-6.5-3.3-6.8-3.8
		s-4.2-8.2-4.2-8.7S358.1,267.2,358.1,267.2L358.1,267.2z"/>
	
		<path id="rect1568-7" inkscape:connector-curvature="0" inkscape:export-filename="C:\Users\schinken\Desktop\ftp2telegram.png" inkscape:export-xdpi="69.559998" inkscape:export-ydpi="69.559998" sodipodi:nodetypes="sssscsccccs" class="st15" d="
		M370.7,101.5c-6.9,0-12.4,5.5-12.4,12.4v164.8c0,6.9,5.5,12.4,12.4,12.4h187.3c6.9,0,12.4-5.5,12.4-12.4V136.5
		c0-8.3-6-12.2-13.6-12.2h-74.5l-24.4-22.8H370.7z"/>
	
		<g id="text1612" inkscape:export-filename="C:\Users\schinken\Desktop\ftp2telegram.png" inkscape:export-xdpi="69.559998" inkscape:export-ydpi="69.559998">
		<path id="path1614" inkscape:connector-curvature="0" class="st16" d="M431.7,183.2h-23.5v13.1h20.2v5.5h-20.2v22.4H402v-46.5
			h29.7V183.2z"/>
		<path id="path1616" inkscape:connector-curvature="0" class="st16" d="M478.8,183.2h-16.6v41h-6.2v-41h-16.6v-5.5h39.4V183.2z"/>
		<path id="path1618" inkscape:connector-curvature="0" class="st16" d="M521.3,191.8c0,2.1-0.4,4-1.1,5.8c-0.7,1.7-1.7,3.3-3,4.6
			c-1.6,1.6-3.5,2.8-5.7,3.6c-2.2,0.8-4.9,1.2-8.3,1.2h-6.2v17.3h-6.2v-46.5h12.6c2.8,0,5.2,0.2,7.1,0.7c1.9,0.5,3.7,1.2,5.2,2.2
			c1.8,1.2,3.1,2.7,4.1,4.4C520.9,186.8,521.3,189,521.3,191.8L521.3,191.8z M514.9,191.9c0-1.6-0.3-3-0.8-4.2
			c-0.6-1.2-1.4-2.2-2.6-2.9c-1-0.6-2.1-1.1-3.4-1.4c-1.3-0.3-2.9-0.4-4.8-0.4h-6.1v18.6h5.2c2.5,0,4.5-0.2,6.1-0.7
			c1.6-0.5,2.8-1.2,3.8-2.2c1-1,1.7-2.1,2.1-3.2C514.7,194.5,514.9,193.3,514.9,191.9z"/>
	</g>
</g>
</svg>
